<svg width="241" height="87" viewBox="0 0 241 87" fill="none" xmlns="http://www.w3.org/2000/svg">
    <path d="M240.7 83L210.1 3.2C209.3 1.1 207.7 0 205.5 0H2.4C0.8 0 0 0.9 0 2.7V84.1C0 85.1 0.2 85.9 0.6 86.3C1.1 86.8 2 87 3.3 87H24.7C27.5 87 28.9 85.9 28.9 83.6V53.7C28.9 53.5 28.9 53.3 29.1 53C29.4 52.6 29.8 52.4 30.4 52.4H36.3C38.4 52.4 39.8 53 40.3 54.3L52.3 84.5C52.8 86.1 54 87 55.7 87H80.5C81.5 87 82.2 86.7 82.7 85.9C83.2 85.1 83.3 84.2 82.8 83.2L66.7 50.4C66.2 49.2 66.4 48.5 67.2 48.2C70.4 47 73.3 45.4 75.7 43.2C78.3 40.9 80.3 38.2 81.7 35.1C83.2 32 83.9 28.6 83.9 24.9C83.9 21.2 83.7 21 83.2 19.2L101 18.9C101.9 18.9 102.4 19.4 102.4 20.5V84.6C102.4 86.2 103.2 86.9 104.7 86.9H128.9C130.5 86.9 131.3 86 131.3 84.3V20C131.3 19.2 131.8 18.8 132.8 18.8H170.1L145.5 82.6C145 83.8 144.9 84.9 145.4 85.8C145.8 86.6 146.5 87 147.4 87H166.8C167.7 87 168.4 86.8 168.8 86.5C169.3 86.1 169.6 85.7 169.8 85.2L175 71.4C175.3 70.5 175.9 70.1 176.9 70.1H204C204.7 70.1 205.1 70.3 205.3 70.6C205.6 70.8 205.8 71.1 205.9 71.5L210.9 85C211.3 86.3 212.3 87 213.7 87H238.7C239.6 87 240.2 86.5 240.5 85.6C240.9 84.7 240.9 83.8 240.5 83H240.7ZM51.3 32.6C49.6 34.2 47.1 34.9 43.9 34.9H31.1C29.6 34.9 28.9 34.1 28.9 32.4V19.6C28.9 18 29.9 17.2 31.8 17.2H43C45.7 17.2 50 19.3 50.5 19.5C50.5 19.5 53.8 23.3 53.8 26.3C53.8 29.3 52.9 30.8 51.1 32.4L51.3 32.6ZM197.8 50.2H183.3C181.8 50.2 181.3 49.4 182 47.7L189.8 27.8C190 27.4 190.2 27.2 190.6 27.2C191 27.2 191.2 27.4 191.4 27.8L199.1 47.9C199.6 49.5 199.2 50.2 197.9 50.2H197.8Z" fill="black"/>
</svg>
