<svg width="281" height="107" viewBox="0 0 281 107" fill="none" xmlns="http://www.w3.org/2000/svg">
    <path d="M42.5 2.8C41.6 1.9 40.5 1.4 39.1 1.4C37.7 1.4 36.6 1.9 35.7 2.8C34.8 3.7 34.4 4.8 34.4 6.2C34.4 7.6 34.8 8.7 35.7 9.6C36.6 10.5 37.8 11 39.1 11C40.4 11 41.7 10.5 42.5 9.6C43.4 8.7 43.8 7.6 43.8 6.2C43.8 4.8 43.4 3.7 42.5 2.8Z" fill="black"/>
    <path d="M134.5 17.4V21.3C133.5 20.1 132.3 19.2 130.9 18.4C128.9 17.2 126.5 16.7 123.8 16.7C121.1 16.7 117.8 17.5 115.2 19.2C112.7 20.8 110.7 23 109.2 25.7C109 26 108.8 26.4 108.7 26.8C108.5 26.2 108.2 25.7 107.9 25.1C106.5 22.5 104.5 20.4 102 18.9C99.5 17.4 96.7 16.7 93.4 16.7C90.1 16.7 87 17.5 84.2 19.1C81.5 20.7 79.3 22.9 77.7 25.6C77.2 26.4 76.8 27.3 76.5 28.1C76.3 26.6 75.7 25.2 75 23.9C73.8 21.8 72.2 20.1 70.2 18.8C68.2 17.5 65.8 16.8 63.2 16.8C60.6 16.8 58.3 17.4 56.2 18.6C54.9 19.4 53.7 20.3 52.8 21.4V17.5H44.8V52.3H52.8V32.3C52.8 30.8 53.1 29.4 53.8 28.2C54.5 27 55.4 26 56.6 25.4C57.8 24.7 59.2 24.4 60.8 24.4C63.1 24.4 65 25.1 66.5 26.6C68 28.1 68.7 30 68.7 32.3V52.3H76.7V42.2C77 42.9 77.3 43.6 77.7 44.2C79.4 47 81.6 49.1 84.3 50.7C87.1 52.2 90.3 53 93.8 53C97.3 53 99.1 52.5 101.5 51.5C103.9 50.5 106 49 107.7 47L102.6 41.9C101.5 43.1 100.2 44 98.7 44.7C97.2 45.3 95.5 45.6 93.7 45.6C91.9 45.6 89.8 45.2 88.2 44.3C86.6 43.4 85.4 42.1 84.5 40.5C84.1 39.7 83.8 38.9 83.5 38H107.2C107.5 40.3 108.1 42.4 109.2 44.3C110.7 47 112.7 49.1 115.2 50.7C117.8 52.3 120.6 53.1 123.8 53.1C127 53.1 128.8 52.5 130.9 51.4C132.3 50.6 133.5 49.7 134.5 48.5V52.3H142.5V17.4H134.5ZM83.6 31.2C83.8 30.4 84.1 29.6 84.4 29C85.2 27.4 86.4 26.2 87.9 25.3C89.4 24.4 91.2 24 93.2 24C95.2 24 96.8 24.4 98.1 25.2C99.5 26 100.5 27.1 101.2 28.5C101.6 29.3 101.9 30.2 102.1 31.3H83.5L83.6 31.2ZM132.3 42.3C130.5 44.3 128.1 45.3 125.2 45.3C122.3 45.3 121.5 44.9 120 44C118.5 43.1 117.4 41.8 116.5 40.2C115.7 38.6 115.3 36.8 115.3 34.7C115.3 32.6 115.7 30.8 116.5 29.2C117.4 27.6 118.5 26.4 120 25.5C121.5 24.6 123.2 24.1 125.2 24.1C127.2 24.1 128.9 24.6 130.4 25.5C131.9 26.4 133.1 27.6 133.9 29.2C134.7 30.8 135.1 32.6 135.1 34.7C135.1 37.8 134.2 40.3 132.3 42.3Z" fill="black"/>
    <path d="M35 17.4V30.3C34.6 28.7 34 27.1 33.2 25.7C31.7 22.9 29.7 20.8 27.2 19.2C24.7 17.6 21.8 16.7 18.7 16.7C15.6 16.7 13.7 17.3 11.6 18.4C10.2 19.2 9 20.1 8 21.3V17.4H0V66.6H8V48.3C9 49.4 10.2 50.4 11.6 51.1C13.7 52.2 16.1 52.8 18.7 52.8C21.3 52.8 24.7 52 27.2 50.4C29.8 48.8 31.8 46.7 33.2 44C34 42.5 34.6 41 35 39.4V52.2H43V17.4H35ZM26 40.2C25.2 41.8 24 43 22.5 44C21 44.9 19.3 45.3 17.4 45.3C15.5 45.3 13.7 44.9 12.2 44C10.7 43.1 9.5 41.8 8.7 40.2C7.9 38.6 7.5 36.8 7.5 34.7C7.5 32.6 7.9 30.8 8.7 29.2C9.5 27.6 10.7 26.4 12.2 25.5C13.7 24.6 15.4 24.1 17.4 24.1C19.4 24.1 21 24.6 22.5 25.5C24 26.4 25.2 27.6 26 29.2C26.9 30.8 27.3 32.6 27.3 34.7C27.3 36.8 26.9 38.6 26 40.2Z" fill="black"/>
    <path d="M272.6 57.8V43.3H264.6V57.1C263 57.1 261.6 57.4 260.4 57.8H256.2V60.8C256.2 60.9 256 61.1 255.9 61.2C255.9 61.2 255.9 61.3 255.8 61.4V57.8H247.8V70.3C247.4 68.8 246.8 67.3 245.9 66C244.3 63.2 242.1 61.1 239.4 59.5C236.7 57.9 233.5 57.1 230.1 57.1C226.7 57.1 223.6 57.9 220.9 59.6C218.1 61.2 215.9 63.3 214.3 66.1C213.9 66.7 213.6 67.3 213.3 68C213.1 67.4 212.8 66.8 212.4 66.2C210.9 63.4 208.9 61.3 206.4 59.7C203.9 58.1 201 57.2 197.9 57.2C194.8 57.2 192.9 57.8 190.8 58.9C189.4 59.7 188.2 60.6 187.2 61.7V48.4C188.2 49.5 189.4 50.5 190.8 51.2C192.9 52.3 195.3 52.9 197.9 52.9C200.5 52.9 203.9 52.1 206.4 50.5C209 48.9 211 46.8 212.4 44.1C213.1 42.7 213.7 41.3 214.1 39.8V52.2H222.1V39.8C222.5 41.3 223.1 42.8 223.9 44.1C225.6 46.9 227.8 49 230.5 50.6C233.3 52.1 236.5 52.9 240 52.9C243.5 52.9 245.3 52.4 247.7 51.4C250.1 50.4 252.2 48.9 253.9 46.9L248.8 41.8C247.7 43 246.4 43.9 244.9 44.6C243.4 45.2 241.7 45.5 239.9 45.5C238.1 45.5 236 45.1 234.4 44.2C232.8 43.3 231.6 42 230.7 40.4C230.3 39.6 230 38.8 229.7 37.9H255.8C255.9 37.2 256 36.5 256.1 35.9C256.2 35.3 256.3 34.7 256.3 34.1C256.3 30.8 255.6 27.8 254.1 25.2C252.7 22.6 250.7 20.5 248.2 19C245.7 17.5 242.9 16.8 239.6 16.8C236.3 16.8 233.2 17.6 230.4 19.2C227.7 20.8 225.5 23 223.9 25.7C223.1 27 222.5 28.5 222.1 30V0H214.1V29.9C213.7 28.4 213.2 27 212.4 25.7C210.9 22.9 208.9 20.8 206.4 19.2C203.9 17.6 201 16.7 197.9 16.7C194.8 16.7 192.9 17.3 190.8 18.4C189.4 19.2 188.2 20.1 187.2 21.3V17.4H179.2V29.9C178.8 28.4 178.3 27 177.5 25.7C176 22.9 174 20.8 171.5 19.2C169 17.6 166.1 16.7 163 16.7C159.9 16.7 158 17.3 155.9 18.4C154.5 19.2 153.3 20.1 152.3 21.3V17.4H144.3V107H152.3V88.7C153.3 89.8 154.5 90.8 155.9 91.5C158 92.6 160.4 93.2 163 93.2C165.6 93.2 169 92.4 171.5 90.8C174.1 89.2 176.1 87.1 177.5 84.3C178.3 82.9 178.8 81.5 179.2 80V106.9H187.2V88.6C188.2 89.7 189.4 90.7 190.8 91.4C192.9 92.5 195.3 93.1 197.9 93.1C200.5 93.1 203.9 92.3 206.4 90.7C209 89.1 211 87 212.4 84.2C212.8 83.6 213.1 82.9 213.3 82.3C213.6 82.9 213.9 83.5 214.2 84.1C215.9 86.9 218.1 89 220.8 90.7C223.6 92.3 226.7 93.1 230 93.1C233.3 93.1 236.5 92.3 239.3 90.7C242.1 89.1 244.3 86.9 245.8 84.1C246.6 82.7 247.2 81.3 247.7 79.7V92.3H255.7V73C255.7 70 256.4 67.8 257.9 66.4C258.7 65.7 259.5 65.1 260.5 64.8H264.6V92.3H272.6V64.8H281V57.6H272.6V57.8ZM230.6 29C231.4 27.4 232.6 26.2 234.1 25.3C235.6 24.4 237.4 24 239.4 24C241.4 24 243 24.4 244.3 25.2C245.7 26 246.7 27.1 247.4 28.5C247.8 29.3 248.1 30.2 248.3 31.3H229.7C229.9 30.5 230.2 29.7 230.5 29.1L230.6 29ZM152.9 29.2C153.7 27.6 154.9 26.4 156.4 25.5C157.9 24.6 159.6 24.1 161.6 24.1C163.6 24.1 165.2 24.6 166.7 25.5C168.2 26.4 169.4 27.6 170.2 29.2C171.1 30.8 171.5 32.6 171.5 34.7C171.5 36.8 171.1 38.6 170.2 40.2C169.4 41.8 168.2 43 166.7 44C165.2 44.9 163.5 45.3 161.6 45.3C159.7 45.3 157.9 44.9 156.4 44C154.9 43.1 153.7 41.8 152.9 40.2C152.1 38.6 151.7 36.8 151.7 34.7C151.7 32.6 152.1 30.8 152.9 29.2ZM170.1 80.7C169.3 82.3 168.1 83.5 166.6 84.5C165.1 85.4 163.4 85.8 161.5 85.8C159.6 85.8 157.8 85.4 156.3 84.5C154.8 83.6 153.6 82.3 152.8 80.7C152 79.1 151.6 77.3 151.6 75.2C151.6 73.1 152 71.3 152.8 69.7C153.6 68.1 154.8 66.9 156.3 66C157.8 65.1 159.5 64.6 161.5 64.6C163.5 64.6 165.1 65.1 166.6 66C168.1 66.9 169.3 68.1 170.1 69.7C171 71.3 171.4 73.1 171.4 75.2C171.4 77.3 171 79.1 170.1 80.7ZM179.1 70.3C178.7 68.8 178.2 67.4 177.4 66C175.9 63.2 173.9 61.1 171.4 59.5C168.9 57.9 166 57 162.9 57C159.8 57 157.9 57.6 155.8 58.7C154.4 59.4 153.2 60.4 152.2 61.5V48.2C153.2 49.3 154.4 50.3 155.8 51C157.9 52.1 160.3 52.7 162.9 52.7C165.5 52.7 168.9 51.9 171.4 50.3C174 48.7 176 46.6 177.4 43.9C178.1 42.5 178.7 41.1 179.1 39.6V70.3ZM187.8 29.2C188.6 27.6 189.8 26.4 191.3 25.5C192.8 24.6 194.5 24.1 196.5 24.1C198.5 24.1 200.1 24.6 201.6 25.5C203.1 26.4 204.3 27.6 205.1 29.2C206 30.8 206.4 32.6 206.4 34.7C206.4 36.8 206 38.6 205.1 40.2C204.3 41.8 203.1 43 201.6 44C200.1 44.9 198.4 45.3 196.5 45.3C194.6 45.3 192.8 44.9 191.3 44C189.8 43.1 188.6 41.8 187.8 40.2C187 38.6 186.6 36.8 186.6 34.7C186.6 32.6 187 30.8 187.8 29.2ZM205.1 80.7C204.3 82.3 203.1 83.5 201.6 84.5C200.1 85.4 198.4 85.8 196.5 85.8C194.6 85.8 192.8 85.4 191.3 84.5C189.8 83.6 188.6 82.3 187.8 80.7C187 79.1 186.6 77.3 186.6 75.2C186.6 73.1 187 71.3 187.8 69.7C188.6 68.1 189.8 66.9 191.3 66C192.8 65.1 194.5 64.6 196.5 64.6C198.5 64.6 200.1 65.1 201.6 66C203.1 66.9 204.3 68.1 205.1 69.7C206 71.3 206.4 73.1 206.4 75.2C206.4 77.3 206 79.1 205.1 80.7ZM238.9 80.5C238.1 82.1 236.9 83.3 235.3 84.3C233.8 85.2 232.1 85.6 230.1 85.6C228.1 85.6 226.4 85.2 224.9 84.3C223.4 83.4 222.2 82.1 221.3 80.5C220.5 78.9 220.1 77.1 220.1 75.1C220.1 73.1 220.5 71.3 221.3 69.7C222.2 68.2 223.4 66.9 224.9 66.1C226.5 65.2 228.2 64.7 230.1 64.7C232 64.7 233.8 65.2 235.3 66.1C236.8 67 238 68.2 238.9 69.7C239.8 71.2 240.2 73 240.2 75.1C240.2 77.2 239.8 78.9 238.9 80.5Z" fill="black"/>
    <path d="M135.3 57.8V77.6C135.3 80.2 134.7 82.1 133.4 83.5C132.2 84.9 130.4 85.5 128.1 85.5C125.8 85.5 125.3 85.2 124.2 84.6C123.1 84 122.3 83.1 121.7 81.9C121.2 80.7 120.9 79.2 120.9 77.6V57.8H112.9V61.2C111.8 60.1 110.5 59.2 109 58.6C106.9 57.6 104.4 57.1 101.6 57.1C98.8 57.1 96.6 57.5 94.7 58.4C92.8 59.3 91.3 60.5 90.3 62.1C89.3 63.7 88.8 65.6 88.8 67.8C88.8 70 89.2 71.6 90.1 72.9C91 74.2 92.1 75.2 93.5 76C94.9 76.7 96.4 77.3 97.9 77.7C99.4 78.1 100.9 78.6 102.3 79C103.7 79.4 104.8 79.9 105.7 80.4C106.6 81 107 81.8 107 82.9C107 84 106.5 84.7 105.6 85.2C104.7 85.7 103.3 86 101.5 86C99.7 86 97.7 85.7 96.1 85C94.5 84.3 93.2 83.2 91.9 81.8L86.8 86.9C87.9 88.2 89.2 89.4 90.7 90.4C92.2 91.3 93.9 92 95.7 92.6C97.5 93.1 99.4 93.3 101.3 93.3C105.4 93.3 108.6 92.3 111 90.3C112.8 88.8 113.9 87 114.3 84.7C114.5 85.1 114.7 85.5 114.9 85.9C116.2 88.2 118 90 120.3 91.3C122.6 92.6 125.3 93.3 128.2 93.3C131.1 93.3 133.9 92.7 136.1 91.4C138.4 90.1 140.1 88.3 141.4 86.1C142.7 83.8 143.4 81.1 143.4 78.1V57.9H135.4L135.3 57.8ZM109.7 73.9C108.3 73.1 106.9 72.4 105.3 72C103.8 71.5 102.3 71.1 100.9 70.7C99.5 70.3 98.4 69.9 97.6 69.3C96.7 68.8 96.3 68 96.3 67.1C96.3 66.2 96.7 65.5 97.6 65C98.5 64.5 99.7 64.3 101.3 64.3C102.9 64.3 104.5 64.6 105.8 65.2C107.1 65.8 108.3 66.8 109.3 68L112.8 64.5V76.7C112 75.5 110.9 74.6 109.6 73.9H109.7Z" fill="black"/>
</svg>
