<svg width="298" height="95" viewBox="0 0 298 95" fill="none" xmlns="http://www.w3.org/2000/svg">
    <path d="M284.5 9.9C283 7.1 280.6 4.9 277.5 3.2C274.4 1.5 270.5 0.6 265.8 0.6H255.6C249.9 0.6 215.9 0 209.5 0C203.1 0 201.4 0.7 197.8 2.1C194.3 3.5 191.2 5.5 188.7 8.1C186.2 10.7 184.3 13.8 182.8 17.3C181.4 20.8 180.8 24.7 180.8 28.9C180.8 33.1 181.5 37.1 182.8 40.6C183.6 42.7 184.7 44.6 185.9 46.3H178.2C172.4 30.4 168.1 18.8 161.4 0.5H96.5C92.4 0.5 89 0.5 85.8 1.9C82.6 3.1 80.1 5 78.3 7.5C76.4 10 75.5 13 75.5 16.6C75.5 19.5 76 21.9 77.1 23.9C78.2 25.9 79.8 27.4 81.7 28.7C83.6 29.9 85.7 30.9 87.9 31.7C90.1 32.5 92.3 33.1 94.5 33.7C96.5 34.3 98.2 34.9 99.6 35.5C101.1 36 102.3 36.7 103.1 37.5C104 38.3 104.4 39.4 104.4 40.7C104.4 42 103.7 43.7 102.3 44.8C100.9 45.8 99 46.3 96.4 46.3H71.7L54.8 0.6H32.3L11.5 57.2H26.2L30.2 45.9H56.9L61 57.2H109.2C112.3 55.7 115.2 52 116.8 49.4C118.4 46.9 119.2 44 119.2 40.8C119.2 37.6 118.6 35.4 117.3 33.4C116.1 31.4 114.5 29.8 112.5 28.6C110.5 27.3 108.3 26.3 106 25.4C103.7 24.6 101.4 23.8 99.2 23.1C97.6 22.6 96.1 22 94.7 21.4C93.3 20.8 92.3 20.1 91.4 19.4C90.6 18.6 90.3 17.7 90.3 16.5C90.3 15.3 90.6 14.5 91.3 13.7C92 12.9 92.9 12.3 94 11.8C95.1 11.4 96.3 11.1 97.6 11.1H135.4L118.5 57H133.2L137.2 45.7H163.9L168 57H197.4C197.9 57 209.6 57 210.1 57C216.5 57 222.1 55.9 226.7 52.6C231.3 49.3 234.6 44.6 236.6 38.5L224.6 36.1C223.6 38.4 222.3 40.3 220.8 41.8C219.3 43.2 217.7 44.2 215.8 44.9C214 45.5 212 45.8 209.8 45.8C206.8 45.8 204.1 45.1 202 43.6C199.8 42.1 198.2 40.1 197 37.5C195.9 34.9 195.3 32 195.3 28.7C195.3 25.4 195.9 22.6 197 20C198.1 17.4 199.8 15.4 202 13.9C204.2 12.4 207 11.1 210 11.1H239.8V57H254V37.3H266.1C269.7 37.3 272.9 36.8 275.6 35.8C278.3 34.7 280.4 33.3 282.1 31.5C283.8 29.7 285.1 27.7 285.9 25.5C286.8 23.3 287.2 21.1 287.2 18.8C287.2 15.5 286.4 12.5 284.8 9.7L284.5 9.9ZM34.3 34L42 12.3H44.8L52.6 34H34.3ZM141 34L148.7 12.3H151.5L159.3 34H141ZM271.6 22.6C271.1 23.6 270.2 24.4 269.1 24.9C268 25.4 266.6 25.6 264.9 25.6H253.7V12.3H264.9C267.5 12.3 269.4 12.9 270.6 14.1C271.8 15.3 272.5 16.9 272.5 18.9C272.5 20.9 272.2 21.5 271.6 22.5V22.6Z" fill="black"/>
    <path d="M0.400006 94.7C0.300006 94.7 0.200006 94.7 0.100006 94.5C0.100006 94.4 0.100006 94.2 0.100006 94L7.30001 74C7.30001 73.8 7.50001 73.7 7.60001 73.6C7.60001 73.6 7.80001 73.5 8.00001 73.5H11.6C12 73.5 12.3 73.7 12.4 74.1L19.6 94.1C19.6 94.3 19.6 94.4 19.6 94.6C19.6 94.8 19.4 94.8 19.3 94.8H15.8C15.5 94.8 15.4 94.7 15.3 94.4L13.6 89.8C13.6 89.8 13.6 89.6 13.5 89.6C13.5 89.6 13.4 89.6 13.3 89.6H5.80001C5.60001 89.6 5.50001 89.6 5.50001 89.9L3.80001 94.6C3.80001 94.7 3.80001 94.8 3.60001 94.9C3.60001 94.9 3.40001 94.9 3.30001 94.9H0.400006V94.7ZM12.2 86.2C12.4 86.2 12.5 86 12.4 85.7L9.70001 78.1C9.70001 78 9.60001 77.9 9.50001 77.9C9.40001 77.9 9.40001 77.9 9.30001 78.1L6.50001 85.7C6.40001 86 6.50001 86.2 6.70001 86.2H12.2ZM39.5 80C39.5 81.4 39.2 82.6 38.5 83.5C37.9 84.4 37 85.1 35.8 85.6C34.7 86.1 33.3 86.3 31.8 86.3H27.3C27.1 86.3 27 86.3 27 86.6V94.1C27 94.5 26.8 94.7 26.4 94.7H23.3C23.1 94.7 23 94.7 22.9 94.6C22.9 94.6 22.8 94.4 22.8 94.2V74C22.8 73.7 22.9 73.5 23.2 73.5H31.3C32.8 73.5 34.2 73.7 35.4 74.2C36.6 74.7 37.6 75.4 38.3 76.3C39 77.3 39.4 78.5 39.4 80H39.5ZM35.2 79.9C35.2 79.1 35 78.5 34.7 78C34.4 77.5 33.9 77.1 33.3 76.9C32.7 76.7 32 76.6 31.2 76.6H27.6C27.3 76.6 27.1 76.8 27.1 77.1V82.9C27.1 83.2 27.2 83.4 27.5 83.4H31.4C32.6 83.4 33.5 83.1 34.2 82.5C34.9 81.9 35.3 81.1 35.3 80L35.2 79.9ZM59.8 80C59.8 81.4 59.5 82.6 58.8 83.5C58.2 84.4 57.3 85.1 56.1 85.6C55 86.1 53.6 86.3 52.1 86.3H47.6C47.4 86.3 47.3 86.3 47.3 86.6V94.1C47.3 94.5 47.1 94.7 46.7 94.7H43.6C43.4 94.7 43.3 94.7 43.2 94.6C43.2 94.6 43.1 94.4 43.1 94.2V74C43.1 73.7 43.2 73.5 43.5 73.5H51.6C53.1 73.5 54.5 73.7 55.7 74.2C56.9 74.7 57.9 75.4 58.6 76.3C59.3 77.3 59.7 78.5 59.7 80H59.8ZM55.4 79.9C55.4 79.1 55.2 78.5 54.9 78C54.6 77.5 54.1 77.1 53.5 76.9C52.9 76.7 52.2 76.6 51.4 76.6H47.8C47.5 76.6 47.3 76.8 47.3 77.1V82.9C47.3 83.2 47.4 83.4 47.7 83.4H51.6C52.8 83.4 53.7 83.1 54.4 82.5C55.1 81.9 55.5 81.1 55.5 80L55.4 79.9ZM79.8 94C79.8 94.2 79.8 94.3 79.8 94.5C79.8 94.6 79.6 94.7 79.4 94.7H75.9C75.6 94.7 75.4 94.5 75.3 94.2L72 85.9C72 85.7 71.6 85.5 71.2 85.5H67.8C67.7 85.5 67.6 85.5 67.5 85.6C67.5 85.6 67.5 85.7 67.5 85.8V94.1C67.5 94.5 67.3 94.7 66.8 94.7H63.8C63.6 94.7 63.4 94.7 63.4 94.6C63.4 94.6 63.3 94.4 63.3 94.2V74C63.3 73.7 63.4 73.5 63.7 73.5H72.3C74.7 73.5 76.6 74 78 75C79.4 76 80.1 77.4 80.1 79.2C80.1 81 79.9 81.1 79.5 81.9C79.1 82.6 78.6 83.3 78 83.8C77.4 84.3 76.7 84.6 76.1 84.9C75.9 84.9 75.9 85.1 76 85.3L79.8 94.1V94ZM71.7 82.6C73 82.6 74 82.3 74.6 81.8C75.3 81.3 75.6 80.5 75.6 79.5C75.6 78.5 75.3 77.7 74.6 77.2C74 76.7 73.1 76.4 71.9 76.4H67.9C67.6 76.4 67.4 76.5 67.4 76.8V82.2C67.4 82.5 67.5 82.6 67.8 82.6H71.6H71.7ZM92.2 95C90.2 95 88.5 94.6 87.1 93.7C85.7 92.8 84.6 91.6 83.8 90C83 88.4 82.7 86.4 82.7 84.2C82.7 82 83.1 79.9 83.9 78.3C84.7 76.7 85.8 75.4 87.2 74.5C88.6 73.6 90.3 73.2 92.3 73.2C94.3 73.2 95.9 73.6 97.3 74.5C98.7 75.4 99.8 76.6 100.6 78.3C101.4 79.9 101.8 81.9 101.8 84.2C101.8 86.5 101.4 88.4 100.6 90C99.8 91.6 98.7 92.9 97.3 93.7C95.9 94.6 94.2 95 92.2 95ZM92.2 92C93.9 92 95.2 91.4 96 90.2C96.8 89 97.3 87 97.3 84.3C97.3 81.6 96.9 79.5 96 78.2C95.2 76.9 93.9 76.3 92.2 76.3C90.5 76.3 89.2 76.9 88.3 78.2C87.5 79.5 87 81.5 87 84.3C87 87.1 87.4 89 88.3 90.2C89.2 91.4 90.5 92.1 92.2 92.1V92ZM121.1 73.5C121.3 73.5 121.4 73.5 121.5 73.7C121.5 73.8 121.5 73.9 121.5 74.1L114.5 94.2C114.4 94.6 114.1 94.7 113.7 94.7H110.7C110.2 94.7 110 94.5 109.9 94.2L103 74.1C103 73.9 103 73.8 103 73.7C103 73.6 103.2 73.5 103.4 73.5H106.8C107.1 73.5 107.3 73.6 107.3 73.9L112.4 89.3C112.5 89.6 112.7 89.6 112.8 89.3L117.9 73.9C117.9 73.6 118.2 73.5 118.5 73.5H121.2H121.1ZM124.8 74C124.8 73.7 124.9 73.5 125.2 73.5H139.1C139.3 73.5 139.5 73.6 139.5 73.9V76.1C139.5 76.5 139.3 76.6 139 76.6H129.6C129.3 76.6 129.1 76.7 129.1 77V82C129.1 82.3 129.2 82.4 129.5 82.4H136C136.3 82.4 136.4 82.5 136.4 82.8V85.1C136.4 85.1 136.4 85.3 136.4 85.4C136.4 85.4 136.2 85.4 136.1 85.4H129.5C129.3 85.4 129.1 85.5 129.1 85.7V91C129.1 91.2 129.2 91.3 129.4 91.3H139.4C139.7 91.3 139.9 91.4 139.9 91.7V94C139.9 94.1 139.9 94.2 139.8 94.3C139.8 94.3 139.6 94.4 139.4 94.4H125.4C125 94.4 124.9 94.2 124.9 93.9V73.7L124.8 74ZM143.8 73.5H148.3C148.8 73.5 149.2 73.5 149.5 73.5C152.1 73.5 154.2 74 155.9 74.9C157.6 75.7 158.8 76.9 159.6 78.5C160.4 80 160.8 81.9 160.8 84C160.8 86.1 160.4 88.2 159.5 89.8C158.7 91.4 157.4 92.6 155.7 93.5C154 94.3 151.9 94.8 149.3 94.8H143.8C143.4 94.8 143.2 94.6 143.2 94.2V74.1C143.2 73.9 143.2 73.8 143.3 73.7C143.3 73.7 143.5 73.6 143.8 73.6V73.5ZM147.8 76.5C147.6 76.5 147.5 76.6 147.5 76.9V91.3C147.5 91.5 147.6 91.6 147.9 91.6H148.6C150.4 91.6 151.8 91.4 153 90.9C154.1 90.4 155 89.6 155.5 88.5C156.1 87.4 156.3 85.9 156.3 84C156.3 82.1 156 80.7 155.5 79.6C155 78.5 154.1 77.7 153 77.2C151.9 76.7 150.5 76.5 148.8 76.5H147.7H147.8ZM171 94.7C170.6 94.7 170.5 94.5 170.5 94.1V73.9C170.5 73.6 170.7 73.4 171 73.4H175.8C176 73.4 176.1 73.4 176.2 73.4C176.2 73.4 176.4 73.5 176.4 73.7L181.4 87.2C181.4 87.4 181.5 87.4 181.6 87.4C181.6 87.4 181.7 87.3 181.8 87.1L186.7 73.8C186.8 73.4 187 73.3 187.3 73.3H192.3C192.6 73.3 192.7 73.5 192.7 73.8V94C192.7 94.4 192.5 94.6 192.1 94.6H189C188.8 94.6 188.7 94.6 188.6 94.5C188.6 94.5 188.5 94.3 188.5 94.1V79.1C188.5 79 188.5 78.9 188.5 79C188.5 79 188.4 79 188.4 79.2L183 94.2C183 94.5 182.7 94.6 182.4 94.6H180.4C180.1 94.6 179.9 94.5 179.8 94.2L174.4 79.4C174.4 79.3 174.4 79.2 174.3 79.2C174.3 79.2 174.3 79.2 174.3 79.4V94.2C174.3 94.4 174.3 94.5 174.3 94.6C174.3 94.6 174.1 94.6 173.9 94.6H171.5L171 94.7ZM197.1 74C197.1 73.7 197.2 73.5 197.5 73.5H211.4C211.6 73.5 211.8 73.6 211.8 73.9V76.1C211.8 76.5 211.6 76.6 211.3 76.6H201.9C201.6 76.6 201.4 76.7 201.4 77V82C201.4 82.3 201.5 82.4 201.8 82.4H208.3C208.6 82.4 208.7 82.5 208.7 82.8V85.1C208.7 85.1 208.7 85.3 208.7 85.4C208.7 85.4 208.5 85.4 208.4 85.4H201.8C201.6 85.4 201.4 85.5 201.4 85.7V91C201.4 91.2 201.5 91.3 201.7 91.3H211.7C212 91.3 212.2 91.4 212.2 91.7V94C212.2 94.1 212.2 94.2 212.1 94.3C212.1 94.3 211.9 94.4 211.7 94.4H197.7C197.3 94.4 197.2 94.2 197.2 93.9V73.7L197.1 74ZM216.1 94.7C215.7 94.7 215.6 94.5 215.6 94.1V73.9C215.6 73.6 215.8 73.4 216.1 73.4H220.9C221.1 73.4 221.2 73.4 221.3 73.4C221.3 73.4 221.5 73.5 221.5 73.7L226.5 87.2C226.5 87.4 226.6 87.4 226.7 87.4C226.7 87.4 226.8 87.3 226.9 87.1L231.8 73.8C231.9 73.4 232.1 73.3 232.4 73.3H237.4C237.7 73.3 237.8 73.5 237.8 73.8V94C237.8 94.4 237.6 94.6 237.2 94.6H234.1C233.9 94.6 233.8 94.6 233.7 94.5C233.7 94.5 233.6 94.3 233.6 94.1V79.1C233.6 79 233.6 78.9 233.6 79C233.6 79 233.5 79 233.5 79.2L228.1 94.2C228.1 94.5 227.8 94.6 227.5 94.6H225.5C225.2 94.6 225 94.5 224.9 94.2L219.5 79.4C219.5 79.3 219.5 79.2 219.4 79.2C219.4 79.2 219.4 79.2 219.4 79.4V94.2C219.4 94.4 219.4 94.5 219.4 94.6C219.4 94.6 219.2 94.6 219 94.6H216.6L216.1 94.7ZM242.8 94.7C242.6 94.7 242.5 94.7 242.4 94.6C242.4 94.6 242.3 94.4 242.3 94.3V74.1C242.3 73.9 242.3 73.8 242.4 73.7C242.4 73.7 242.6 73.6 242.8 73.6H250.2C252.9 73.6 255 74.1 256.4 75C257.9 75.9 258.6 77.3 258.6 79.1C258.6 80.9 258.3 81.1 257.7 81.8C257.1 82.5 256.2 83.2 254.8 83.7C254.8 83.7 254.8 83.7 254.8 83.8C254.8 83.9 254.8 83.8 254.8 83.9C256.2 84.3 257.3 85 258 85.8C258.7 86.6 259.1 87.7 259.1 89C259.1 90.9 258.4 92.4 256.9 93.3C255.4 94.2 253.3 94.7 250.5 94.7H242.8ZM250.3 91.8C251.8 91.8 252.9 91.5 253.6 91C254.3 90.4 254.7 89.7 254.7 88.7C254.7 87.7 254.5 87.4 254.2 86.9C253.9 86.4 253.4 86.1 252.7 85.8C252.1 85.6 251.4 85.5 250.6 85.5H247.1C246.8 85.5 246.6 85.7 246.6 86V91.4C246.6 91.7 246.7 91.9 247 91.9H250.4L250.3 91.8ZM250.6 82.5C251.1 82.5 251.5 82.5 252 82.4C252.5 82.3 252.9 82.1 253.2 81.9C253.6 81.7 253.8 81.3 254.1 81C254.3 80.6 254.4 80.2 254.4 79.6C254.4 78.6 254 77.8 253.3 77.3C252.6 76.8 251.6 76.5 250.4 76.5H247.1C246.8 76.5 246.6 76.6 246.6 76.9V82.1C246.6 82.4 246.7 82.6 247 82.6H250.7L250.6 82.5ZM262.8 74C262.8 73.7 262.9 73.5 263.2 73.5H277.1C277.3 73.5 277.5 73.6 277.5 73.9V76.1C277.5 76.5 277.3 76.6 277 76.6H267.6C267.3 76.6 267.1 76.7 267.1 77V82C267.1 82.3 267.2 82.4 267.5 82.4H274C274.3 82.4 274.4 82.5 274.4 82.8V85.1C274.4 85.1 274.4 85.3 274.4 85.4C274.4 85.4 274.2 85.4 274.1 85.4H267.5C267.3 85.4 267.1 85.5 267.1 85.7V91C267.1 91.2 267.2 91.3 267.4 91.3H277.4C277.7 91.3 277.9 91.4 277.9 91.7V94C277.9 94.1 277.9 94.2 277.8 94.3C277.8 94.3 277.6 94.4 277.4 94.4H263.4C263 94.4 262.9 94.2 262.9 93.9V73.7L262.8 74ZM297.7 94C297.7 94.2 297.7 94.3 297.7 94.5C297.7 94.6 297.5 94.7 297.3 94.7H293.8C293.5 94.7 293.3 94.5 293.2 94.2L289.9 85.9C289.9 85.7 289.5 85.5 289.1 85.5H285.7C285.6 85.5 285.5 85.5 285.4 85.6C285.4 85.6 285.4 85.7 285.4 85.8V94.1C285.4 94.5 285.2 94.7 284.7 94.7H281.7C281.5 94.7 281.3 94.7 281.3 94.6C281.3 94.6 281.2 94.4 281.2 94.2V74C281.2 73.7 281.3 73.5 281.6 73.5H290.2C292.6 73.5 294.5 74 295.9 75C297.3 76 298 77.4 298 79.2C298 81 297.8 81.1 297.4 81.9C297 82.6 296.5 83.3 295.9 83.8C295.3 84.3 294.6 84.6 294 84.9C293.8 84.9 293.8 85.1 293.9 85.3L297.7 94.1V94ZM289.6 82.6C290.9 82.6 291.9 82.3 292.5 81.8C293.2 81.3 293.5 80.5 293.5 79.5C293.5 78.5 293.2 77.7 292.5 77.2C291.9 76.7 291 76.4 289.8 76.4H285.8C285.5 76.4 285.3 76.5 285.3 76.8V82.2C285.3 82.5 285.4 82.6 285.7 82.6H289.5H289.6Z" fill="black"/>
</svg>
